<svg width="104" height="24" viewBox="0 0 104 24" fill="none" xmlns="http://www.w3.org/2000/svg">
<path fill-rule="evenodd" clip-rule="evenodd" d="M12 0C5.376 0 0 5.376 0 12C0 18.624 5.376 24 12 24C18.624 24 24 18.624 24 12C24.0096 5.376 18.6336 0 12 0ZM3.0336 10.2528C3.0336 6.2592 6.2688 3.0336 10.2624 3.0336C14.016 3.0336 17.1072 5.8944 17.4528 9.5616C17.232 9.5424 17.0016 9.5328 16.7712 9.5328C12.7776 9.5328 9.5328 12.768 9.5328 16.7712C9.5328 17.0016 9.5424 17.232 9.5616 17.4528C5.904 17.0976 3.0336 14.016 3.0336 10.2528ZM32.784 5.0592H36.4608V17.9328H44.4192V20.928H32.784V5.0592ZM45.8016 5.0592C45.8016 3.9456 46.6848 3.0912 48 3.0912C49.3152 3.0912 50.1984 3.9072 50.1984 4.992C50.1984 6.1728 49.3152 7.0368 48 7.0368C46.6848 7.0368 45.8016 6.1728 45.8016 5.0592ZM46.2336 8.736H49.776V20.928H46.2336V8.736ZM60.9312 20.3424C60.2016 20.8608 59.136 21.1104 58.0512 21.1104C55.1712 21.1104 53.4912 19.632 53.4912 16.7328V11.7216H51.6096V9.0048H53.4912V6.0384H57.0336V9.0048H60.0768V11.7216H57.0336V16.6848C57.0336 17.7312 57.6 18.2976 58.5504 18.2976C59.0688 18.2976 59.5968 18.1344 59.9808 17.8464L60.9312 20.3424ZM62.0448 5.0592C62.0448 3.9456 62.928 3.0912 64.2432 3.0912C65.5584 3.0912 66.4416 3.9072 66.4416 4.992C66.4416 6.1728 65.5584 7.0368 64.2432 7.0368C62.928 7.0368 62.0448 6.1728 62.0448 5.0592ZM62.4768 8.736H66.0192V20.928H62.4768V8.736ZM80.688 8.736V20.928H77.328V19.4784C76.3968 20.544 75.0336 21.1104 73.536 21.1104C70.4736 21.1104 68.3232 19.392 68.3232 15.6192V8.736H71.8656V15.1104C71.8656 17.1552 72.7776 18.0576 74.3328 18.0576C75.9648 18.0576 77.1456 17.0112 77.1456 14.7744V8.736H80.688ZM103.68 13.9488V20.928H100.138V14.496C100.138 12.528 99.2544 11.616 97.824 11.616C96.24 11.616 95.1264 12.6336 95.1264 14.8128V20.928H91.584V14.496C91.584 12.528 90.7488 11.616 89.2704 11.616C87.7056 11.616 86.592 12.6336 86.592 14.8128V20.928H83.0496V8.736H86.4288V10.1376C87.3408 9.0912 88.6944 8.5536 90.2592 8.5536C91.9584 8.5536 93.408 9.2064 94.272 10.5504C95.2512 9.3024 96.8352 8.5536 98.6688 8.5536C101.597 8.5536 103.68 10.2336 103.68 13.9488Z" fill="white"/>
</svg>
